HIERARCHY
ROOT Hips
{
	OFFSET -218.811600 91.910019 -434.508209
	CHANNELS 6 Xposition Yposition Zposition Zrotation Yrotation Xrotation 
	JOINT LeftUpLeg
	{
		OFFSET 0.103459 1.857842 10.548500
		CHANNELS 3 Zrotation Yrotation Xrotation
		JOINT LeftLeg
		{
			OFFSET 43.500008 -0.000042 -0.000011
			CHANNELS 3 Zrotation Yrotation Xrotation
			JOINT LeftFoot
			{
				OFFSET 42.372200 0.000000 0.000010
				CHANNELS 3 Zrotation Yrotation Xrotation
				JOINT LeftToe
				{
					OFFSET 17.300018 0.000008 -0.000006
					CHANNELS 3 Zrotation Yrotation Xrotation
					End Site
					{
						OFFSET 0.000000 0.000000 0.000000
					}
				}
			}
		}
	}
	JOINT RightUpLeg
	{
		OFFSET 0.103459 1.857820 -10.548510
		CHANNELS 3 Zrotation Yrotation Xrotation
		JOINT RightLeg
		{
			OFFSET 43.500038 -0.000004 -0.000004
			CHANNELS 3 Zrotation Yrotation Xrotation
			JOINT RightFoot
			{
				OFFSET 42.372261 -0.000019 0.000015
				CHANNELS 3 Zrotation Yrotation Xrotation
				JOINT RightToe
				{
					OFFSET 17.300003 -0.000001 0.000006
					CHANNELS 3 Zrotation Yrotation Xrotation
					End Site
					{
						OFFSET 0.000000 0.000000 0.000000
					}
				}
			}
		}
	}
	JOINT Spine
	{
		OFFSET 6.901967 -2.603730 -0.000004
		CHANNELS 3 Zrotation Yrotation Xrotation
		JOINT Spine1
		{
			OFFSET 12.588097 -0.000009 0.000008
			CHANNELS 3 Zrotation Yrotation Xrotation
			JOINT Spine2
			{
				OFFSET 12.343205 0.000003 -0.000002
				CHANNELS 3 Zrotation Yrotation Xrotation
				JOINT Neck
				{
					OFFSET 25.832899 -0.000006 0.000003
					CHANNELS 3 Zrotation Yrotation Xrotation
					JOINT Head
					{
						OFFSET 11.766611 0.000013 0.000001
						CHANNELS 3 Zrotation Yrotation Xrotation
						End Site
						{
							OFFSET 0.000000 0.000000 0.000000
						}
					}
				}
				JOINT LeftShoulder
				{
					OFFSET 19.745903 -1.480350 6.000102
					CHANNELS 3 Zrotation Yrotation Xrotation
					JOINT LeftArm
					{
						OFFSET 11.284125 -0.000002 -0.000024
						CHANNELS 3 Zrotation Yrotation Xrotation
						JOINT LeftForeArm
						{
							OFFSET 33.000050 0.000009 0.000033
							CHANNELS 3 Zrotation Yrotation Xrotation
							JOINT LeftHand
							{
								OFFSET 25.200012 0.000010 -0.000003
								CHANNELS 3 Zrotation Yrotation Xrotation
								End Site
								{
									OFFSET 0.000000 0.000000 0.000000
								}
							}
						}
					}
				}
				JOINT RightShoulder
				{
					OFFSET 19.746105 -1.480362 -6.000072
					CHANNELS 3 Zrotation Yrotation Xrotation
					JOINT RightArm
					{
						OFFSET 11.284140 -0.000003 -0.000004
						CHANNELS 3 Zrotation Yrotation Xrotation
						JOINT RightForeArm
						{
							OFFSET 33.000099 0.000013 0.000007
							CHANNELS 3 Zrotation Yrotation Xrotation
							JOINT RightHand
							{
								OFFSET 25.199776 0.000126 0.000428
								CHANNELS 3 Zrotation Yrotation Xrotation
								End Site
								{
									OFFSET 0.000000 0.000000 0.000000
								}
							}
						}
					}
				}
			}
		}
	}
}
MOTION
Frames: 11
Frame Time: 0.033333
-62.394878 83.472702 316.235291 77.925656 2.748594 21.640013 -156.046832 -4.618302 176.601289 -48.968382 -0.652714 -6.324896 68.199842 -1.468156 -16.912752 21.454555 0.003089 0.000002 168.322554 -3.627503 172.229763 -53.855024 5.015281 3.887212 94.865098 -2.707064 0.406571 21.454558 -0.003109 -0.000018 4.038275 0.446329 -3.956698 -1.964638 0.821793 -7.920993 -2.279459 0.774237 -7.925766 -35.288811 5.320228 -6.909328 -15.318062 5.050208 -5.806781 -147.838748 -75.535096 -34.366411 0.879522 60.510510 8.744944 -102.983612 -2.231040 3.037552 -9.528696 5.024946 75.228639 -134.858411 57.948206 48.509438 41.539612 -54.311984 11.965952 -78.555549 14.406377 -2.851028 0.109191 19.438040 -66.779197 
-68.614273 82.374092 316.833496 76.526901 0.757885 23.188964 -162.153103 -8.499298 176.436887 -62.750089 1.143232 -6.936692 69.138358 -0.227651 -14.858472 21.454558 0.003088 0.000004 173.753264 -6.149201 -179.863278 -53.282405 1.936156 1.900410 100.183801 -1.425089 -1.775825 21.454558 -0.003108 -0.000018 4.583686 0.835130 -3.709450 -0.898561 1.638381 -7.426705 -1.213910 1.593760 -7.436387 -33.561743 5.646458 -6.307949 -16.748739 5.255585 -5.334440 -145.156983 -74.431864 -37.145799 2.434989 62.862684 2.721697 -111.306293 0.099110 3.237785 -21.324447 -12.461750 42.997588 -137.096213 57.492830 46.199611 38.571509 -55.053176 16.532505 -78.794340 15.060531 -2.907920 -1.623485 24.310233 -63.058116 
-74.698997 81.917084 317.921112 76.974798 -0.319841 23.793946 -171.048591 -8.449998 179.436883 -74.157973 2.021702 -9.533597 72.052977 3.168746 -11.264241 21.454551 0.003098 -0.000001 178.338643 -7.272996 178.129189 -51.114315 4.958417 2.389589 103.012100 -1.839842 -3.485771 21.454562 -0.003111 -0.000018 4.554923 0.936775 -3.023542 -0.951859 1.846139 -6.056235 -1.268225 1.809732 -6.067219 -31.506242 4.885596 -5.331295 -17.634654 6.409255 -5.349443 -143.441281 -72.461866 -38.978998 10.980284 64.914275 5.818467 -112.355396 1.021029 3.218782 -32.534705 -29.652132 21.916405 -140.333586 56.922233 42.843881 33.212351 -54.728810 17.505848 -74.157707 17.781233 -2.899259 -3.154635 28.429761 -51.203599 
-81.084679 82.593369 319.672089 77.593223 0.332373 23.979980 -178.943689 -4.126997 -175.918503 -80.329588 2.076373 -12.755492 74.036703 6.272277 -9.265180 21.454550 0.003091 -0.000001 -174.257742 -6.852093 175.902534 -44.549851 6.617022 3.303063 103.037502 -2.521085 -4.365981 21.454557 -0.003107 -0.000017 4.421390 0.539010 -2.099751 -1.189428 1.054610 -4.205551 -1.506655 1.029353 -4.211828 -30.838000 3.191477 -4.274154 -18.004145 7.575127 -5.594543 -141.583811 -69.501983 -41.010853 22.201398 62.425347 11.530956 -107.216300 0.203560 3.053696 -36.199378 -33.858966 39.247377 -141.308800 57.893892 41.777033 28.981500 -55.731827 10.229049 -64.344521 21.764203 -2.769321 4.387180 33.377618 -14.919647 
-87.862343 83.882637 321.697815 77.597021 1.504358 23.327026 174.675818 0.256106 -172.761739 -81.845890 1.459552 -13.082621 77.541048 7.120465 -7.939735 21.454557 0.003089 -0.000002 -165.318268 -6.211700 175.219023 -36.014232 6.158893 3.825781 97.670578 -3.230119 -5.850155 21.454560 -0.003108 -0.000018 4.317962 -0.023680 -0.800227 -1.376511 -0.057601 -1.600096 -1.694499 -0.067128 -1.599722 -32.525856 0.585981 -3.343999 -17.053898 8.675682 -6.181253 -137.142494 -67.705746 -45.667219 27.064621 58.316954 12.830370 -96.269105 -2.324663 2.746344 -22.485370 -17.598411 49.753915 -142.233307 58.995691 40.760100 25.171477 -56.480426 1.583290 -52.429854 22.454035 -2.363419 19.131423 20.736687 29.947682 
-94.632629 85.252197 323.887085 77.508529 2.737245 21.133056 169.422351 4.081295 -172.895010 -78.776697 1.319907 -11.716970 80.880833 6.731430 -6.325488 21.454550 0.003095 0.000001 -157.710502 -4.237600 174.893797 -29.424271 6.069980 3.433402 88.350628 -3.584140 -6.330744 21.454560 -0.003107 -0.000017 4.170653 -0.558830 0.781952 -1.679211 -1.105626 1.572487 -1.997241 -1.095974 1.579131 -34.993819 -2.694827 -2.386420 -15.875981 10.083848 -7.230535 -134.156472 -67.271476 -48.764716 25.247711 53.980430 12.351373 -85.083550 -8.360677 2.672908 -0.749319 1.369215 70.182926 -143.798595 61.043818 39.037653 21.513959 -55.773491 -8.369679 -42.445873 19.762884 -1.864225 18.076707 0.447648 56.408036 
-101.264099 86.295128 326.140106 77.268796 3.593683 17.949951 165.630107 6.614897 -173.066257 -71.464823 0.158724 -9.622843 85.891131 5.466184 -6.628682 21.454557 0.003093 -0.000000 -152.585156 -1.357805 177.438602 -27.125794 5.666715 1.095286 79.730314 -2.304894 -5.485254 21.454563 -0.003108 -0.000017 4.067841 -0.846971 2.274149 -1.910308 -1.654306 4.563190 -2.227433 -1.626609 4.573069 -38.008473 -6.347345 -1.304714 -13.947191 12.126359 -8.624685 -133.704600 -67.079923 -49.240500 18.565788 49.153094 17.319637 -69.099979 -18.237997 2.681251 20.945475 7.418703 91.477734 -144.660907 64.642379 37.993327 17.411107 -53.787313 -23.755973 -39.384971 17.335901 -1.621626 13.740859 -8.058565 48.070496 
-107.859299 86.719208 328.180908 77.132732 3.770979 15.334960 163.619258 7.702607 -171.583395 -59.562576 -1.452573 -7.881301 89.059110 4.416340 -6.891879 21.454553 0.003090 0.000001 -151.185049 0.920303 -178.391168 -31.520729 4.457620 -1.820038 74.695181 1.233548 0.314841 21.454557 -0.003108 -0.000017 4.007558 -0.879017 3.004755 -2.042712 -1.702188 6.025999 -2.359019 -1.665692 6.036115 -40.422562 -6.287321 -1.153677 -12.148892 11.246251 -8.062217 -133.018576 -67.234695 -49.937972 13.103983 45.523139 27.563266 -43.155386 -22.681993 2.049578 27.573614 6.107565 86.108017 -147.162614 68.490214 35.260739 11.405674 -50.467452 -36.072954 -47.214188 19.249799 -1.973799 9.898656 -12.171120 12.379993 
-114.156097 86.879356 329.794495 76.731759 3.760729 13.583009 164.993465 7.427798 -169.210355 -42.039828 -2.225533 -7.202111 84.280614 3.329384 -8.930069 21.454551 0.003091 0.000001 -152.568408 1.580002 -176.985952 -39.522702 2.986044 -1.777263 68.358432 2.565128 3.853312 21.454550 -0.003107 -0.000017 4.097263 -0.728385 2.985031 -1.855128 -1.406216 5.982441 -2.171431 -1.369988 5.990776 -39.951269 -4.750728 -1.900589 -11.778729 11.295680 -7.900435 -134.550082 -67.061277 -48.370829 12.572927 43.560296 29.525914 -20.259150 -13.916545 1.007589 21.369135 2.182120 67.360780 -150.487400 69.873143 31.787827 5.218340 -45.950545 -33.446897 -66.620497 18.928073 -2.662219 10.865923 -16.239611 -35.087921 
-119.911797 85.494537 331.140503 76.294675 3.419983 12.586059 164.740939 5.884400 -173.681916 -46.449330 -3.980738 -7.858680 81.019977 5.872566 1.183192 21.454551 0.003094 -0.000000 -157.598064 1.675798 -176.467049 -52.879932 1.324342 -1.345969 66.594358 3.036392 5.547570 21.454551 -0.003107 -0.000018 4.452054 -0.531731 2.513413 -1.131519 -1.036828 5.032545 -1.448327 -1.006318 5.038690 -38.322351 -0.964104 -4.150069 -12.380368 8.947424 -7.329485 -136.340111 -68.448898 -46.455286 22.915414 43.412174 36.121428 -17.947985 -12.486967 0.891008 28.212675 11.615780 55.353045 -150.235174 69.579772 32.056687 -0.765058 -43.541090 -17.097627 -86.126575 7.689611 -2.712253 10.121068 -17.875114 -62.920515 
-125.425499 84.544449 332.868988 74.776037 5.014043 10.958984 169.706473 6.001099 -178.344859 -48.909581 -3.869125 -5.753161 88.131529 4.554497 2.987606 21.454553 0.003093 0.000000 -163.175091 3.841094 -177.140642 -66.552612 0.120619 -0.445181 70.785868 1.866768 4.550074 21.454558 -0.003108 -0.000018 5.377227 -0.569810 1.971438 0.721881 -1.150647 3.939861 0.404548 -1.126715 3.946722 -35.911113 -1.607875 -4.786966 -14.441248 9.059372 -8.496785 -134.747994 -68.301796 -48.100494 33.250399 45.226159 47.657239 -23.535958 -16.025861 1.185116 29.171294 23.265538 53.040975 -148.118212 69.905654 34.226816 -5.837057 -45.632583 -4.560135 -99.742694 1.102772 -2.860147 -0.334166 -12.126910 -63.146431 
